<svg width="256" height="256" viewBox="0 0 256 256" fill="none" xmlns="http://www.w3.org/2000/svg">
  <defs>
    <linearGradient id="bg1" x1="24" y1="24" x2="232" y2="232" gradientUnits="userSpaceOnUse">
      <stop stop-color="#2563EB"/>
      <stop offset="1" stop-color="#06B6D4"/>
    </linearGradient>
    <linearGradient id="panel1" x1="52" y1="64" x2="204" y2="196" gradientUnits="userSpaceOnUse">
      <stop stop-color="#FFFFFF" stop-opacity="0.24"/>
      <stop offset="1" stop-color="#FFFFFF" stop-opacity="0.10"/>
    </linearGradient>
  </defs>

  <rect x="20" y="20" width="216" height="216" rx="44" fill="url(#bg1)"/>
  <rect x="48" y="56" width="160" height="120" rx="18" fill="url(#panel1)" stroke="#E0F2FE" stroke-opacity="0.45" stroke-width="4"/>
  <rect x="62" y="70" width="132" height="16" rx="8" fill="#E0F2FE" fill-opacity="0.4"/>
  <circle cx="74" cy="78" r="3.5" fill="#F8FAFC"/>
  <circle cx="86" cy="78" r="3.5" fill="#F8FAFC" fill-opacity="0.8"/>
  <circle cx="98" cy="78" r="3.5" fill="#F8FAFC" fill-opacity="0.55"/>

  <rect x="66" y="98" width="48" height="46" rx="10" fill="#F8FAFC" fill-opacity="0.88"/>
  <rect x="121" y="98" width="59" height="10" rx="5" fill="#F8FAFC" fill-opacity="0.82"/>
  <rect x="121" y="116" width="46" height="8" rx="4" fill="#F8FAFC" fill-opacity="0.52"/>
  <rect x="121" y="130" width="53" height="8" rx="4" fill="#F8FAFC" fill-opacity="0.38"/>

  <path d="M88 112L78 121L88 130" stroke="#2563EB" stroke-width="6" stroke-linecap="round" stroke-linejoin="round"/>
  <path d="M93 132L100 110" stroke="#06B6D4" stroke-width="6" stroke-linecap="round"/>
  <path d="M102 112L112 121L102 130" stroke="#2563EB" stroke-width="6" stroke-linecap="round" stroke-linejoin="round"/>

  <path d="M80 190H176" stroke="#F8FAFC" stroke-opacity="0.85" stroke-width="10" stroke-linecap="round"/>
  <path d="M104 176L92 198" stroke="#BAE6FD" stroke-width="7" stroke-linecap="round"/>
  <path d="M152 176L164 198" stroke="#BAE6FD" stroke-width="7" stroke-linecap="round"/>
</svg>
